<?xml version="1.0" encoding="UTF-8"?>
<!DOCTYPE svg PUBLIC "-//W3C//DTD SVG 1.1//EN" "http://www.w3.org/Graphics/SVG/1.1/DTD/svg11.dtd">
<!-- Creator: CorelDRAW -->
<svg xmlns="http://www.w3.org/2000/svg" xml:space="preserve" width="4000px" height="799px" version="1.1" style="shape-rendering:geometricPrecision; text-rendering:geometricPrecision; image-rendering:optimizeQuality; fill-rule:evenodd; clip-rule:evenodd"
viewBox="0 0 4000 800"
 xmlns:xlink="http://www.w3.org/1999/xlink"
 xmlns:xodm="http://www.corel.com/coreldraw/odm/2003">
 <defs>
  <style type="text/css">
   <![CDATA[
    .fil0 {fill:#ffffff; shape-rendering: "geometricPrecision"}
    .fil1 {fill:#DA251D; shape-rendering: "geometricPrecision"}
   ]]>
  </style>
 </defs>
 <g id="Layer_x0020_1">
  <metadata id="CorelCorpID_0Corel-Layer"/>
  <path class="fil0" d="M175.92 517.28l-173.09 12.2c-12.7,70.01 2.6,154.91 37.3,202.81 63.6,87.7 384.49,135.7 481.29,-140.4 23.8,-67.61 27.5,-143.81 -5.7,-205.51 -72.29,-134.4 -344.99,-91 -254.49,-216.8 25,-34.7 130.9,-55.2 131.3,74.2 34.7,1.1 87.7,-5.81 123.7,-8.41 21.6,-1.59 47.9,3.1 50.2,-15.2 1.9,-15.79 -0.7,-47.7 -3,-64 -11.5,-82.4 -49.21,-125.6 -123.9,-145.9 -72.3,-19.7 -171.8,-7.1 -230.3,23.4 -138.6,72.2 -180.8,268.9 -98.8,358.01 50.8,55.2 99.1,60.4 179.49,91.5 36.41,14.1 61.81,25.3 63.51,69.5 3.4,85.8 -104.41,118.6 -150.3,73.5 -29.3,-28.6 -22.3,-63.1 -27.21,-108.9l0 0z"/>
  <path class="fil0" d="M1781.71 375.58c33.4,-13.2 56.3,8.7 64.9,34.1 15.3,45.1 -3,139.1 -24.7,179.7 -39.8,74.7 -100.3,61.8 -116.6,17.5 -11.3,-30.4 -1.8,-67.5 -0.2,-98.6 2.7,-53.1 25.3,-112.4 76.6,-132.7zm-287 410.41l153.3 0.2c4.4,-24.9 4.5,-60.9 15.7,-77.91 38.31,103.91 128.6,112.41 214.9,55.61 61,-40.11 105.4,-126.6 124.8,-220.2 19,-91.61 30.3,-217.21 -26,-282.91 -26.3,-30.8 -64.2,-56.01 -123.2,-46.7 -57.5,9 -81.2,40.9 -110.6,63.6l41.8 -263.2 -164.9 -0.2 -125.8 771.71 0 0z"/>
  <path class="fil0" d="M3420.5 786.39l168.4 -0.2c18.3,-100.11 1.5,-128.41 56.9,-179.41 12.3,-11.3 24.8,-31.7 37.9,-38.8l51.7 218.21 184.3 0.2c-2.8,-24.4 -83.7,-295.01 -92.8,-327.41 -15.6,-55.7 -12.5,-27.7 69.2,-121.6l76.2 -81c16.6,-19.3 20,-16.7 26.1,-30.9l-202.5 -0.1c-5.5,10.3 -130.2,169.4 -144.4,178.7l62.1 -388.9 -166.99 -1.01 -126.1 772.22 -0.01 0z"/>
  <path class="fil0" d="M2106.01 384.48l149 21.6c15,-34.3 32.9,-60.5 74.6,-66.4 58.3,-8.4 74.49,13.4 65.9,68.2 -37.7,28.71 -157.3,52.51 -210.9,70.4 -77.4,26.01 -114.9,64.71 -133.8,149.61 -40.4,181.6 149.1,212.21 265.2,125.6 4.7,-3.5 33.4,-29.6 35.3,-32.9 3.3,26.1 1.3,39.9 9,65.4l154.7 0.3c-6.3,-74.7 -12.7,-39.7 2.7,-136.1 7.2,-44.6 14.3,-90.1 21.8,-134.8 15.09,-89.91 42,-197.41 -19.11,-259.71 -33.1,-33.8 -54.39,-37.9 -115.39,-41.8 -89.5,-5.8 -187.81,-0.1 -248.3,67.2 -12.4,13.8 -54.7,75.41 -50.7,103.4l0 0z"/>
  <path class="fil1" d="M2377.41 517.88c-5.3,44.9 -14.2,94.61 -39.1,121.7 -65,70.81 -152.4,41.3 -117.1,-37.1 10.2,-22.5 17.2,-27.4 39.9,-38.8l116.3 -45.8z"/>
  <path class="fil0" d="M3221.9 498.18c-24.4,172.4 -129.4,184.31 -159.4,116.01 -12.5,-28.71 -8.2,-69.21 -4.3,-99.91 8.4,-65.9 32.5,-131.8 80.99,-151.6 77.5,-31.7 92.41,67.5 82.7,135.5l0.01 0zm-70.4 -283.6c-315.3,44 -372.4,636.21 -22.8,582.21 141.4,-21.81 235.1,-141.81 257.3,-287.01 26.4,-171.7 -47.7,-321.21 -234.5,-295.2l0 0z"/>
  <path class="fil0" d="M851.02 361.68c38,-13.4 61.8,10.5 72.8,37 12.6,30.4 9.1,68.4 4.3,101.9 -24.4,170.4 -130.8,182.9 -159.2,111.6 -10.7,-26.8 -7.2,-72.8 -3.1,-102.2 9.3,-67.49 31.9,-129.5 85.2,-148.3l0 0zm3.2 -146.1c-138.7,20.7 -230.1,148.3 -252,293.1 -12.4,81.7 -1.2,165.2 40.4,221.01 36.6,49.1 111.6,81.9 199.49,66.1 139.5,-25.1 231.1,-144.1 251.8,-292.01 24.3,-173.8 -52.89,-316.2 -239.7,-288.2l0.01 0z"/>
  <path class="fil0" d="M2600.61 786.48l162.9 -0.19 124.5 -771.72 -148.8 -0.3c-21,0 -16.2,11.8 -19.3,33.6l-87.9 541.61c-10.6,63.5 -24.3,134.11 -31.4,197l0 0z"/>
  <path class="fil0" d="M1361.52 310.98l12.5 -85.21 -151.5 -0.29 -92.4 560.71 166.09 -0.1c14.6,-86.6 25.21,-177.81 44.6,-259.61 10.7,-45.1 31.4,-131.1 79,-146.3 25.1,-8 39.5,4.2 57.8,11.4 7.9,-8.3 72.9,-135.41 76.2,-149.01 -35.6,-19.4 -66,-47.3 -120.1,-18.19 -36.5,19.6 -49.1,52.9 -72.2,86.6l0.01 0z"/>
 </g>
</svg>
