<?xml version="1.0" encoding="UTF-8"?>
<!DOCTYPE svg PUBLIC "-//W3C//DTD SVG 1.1//EN" "http://www.w3.org/Graphics/SVG/1.1/DTD/svg11.dtd">
<svg xmlns="http://www.w3.org/2000/svg" xml:space="preserve" width="240mm" height="49.9997mm" version="1.1" style="shape-rendering:geometricPrecision; text-rendering:geometricPrecision; image-rendering:optimizeQuality; fill-rule:evenodd; clip-rule:evenodd"
viewBox="0 0 19394 4040"
 xmlns:xlink="http://www.w3.org/1999/xlink">
 <defs>
  <style type="text/css">
   <![CDATA[
    .fil1 {fill:#DE0000}
    .fil0 {fill:white}
   ]]>
  </style>
 </defs>
 <g id="Layer_x0020_1">
  <metadata id="CorelCorpID_0Corel-Layer"/>
  <path class="fil0" d="M1 2706l651 -76c6,257 59,445 161,565 102,121 252,181 451,181 211,0 377,-53 498,-161 120,-107 190,-232 209,-375 12,-93 -1,-171 -37,-236 -37,-65 -108,-121 -214,-168 -73,-33 -240,-89 -502,-171 -337,-105 -567,-234 -689,-387 -171,-215 -237,-478 -197,-787 26,-199 97,-386 212,-559 117,-174 269,-305 457,-396 188,-91 406,-136 656,-136 407,0 700,108 877,325 179,217 249,505 213,868l-663 27c-2,-202 -43,-346 -124,-434 -80,-88 -212,-133 -395,-133 -190,0 -344,48 -463,142 -77,61 -123,142 -136,243 -12,93 11,172 68,237 71,84 261,172 568,262 308,90 531,185 671,281 141,97 243,229 308,396 65,168 81,375 50,621 -29,223 -108,433 -237,628 -129,195 -294,341 -495,435 -202,95 -444,142 -727,142 -411,0 -713,-113 -904,-341 -191,-227 -280,-558 -267,-993zm3715 -144c-36,280 -8,496 83,644 92,150 219,225 382,225 162,0 308,-75 437,-225 129,-148 212,-365 249,-649 36,-277 8,-491 -83,-639 -90,-150 -217,-225 -379,-225 -163,0 -309,75 -440,225 -130,148 -213,364 -249,644zm-636 -40c32,-249 114,-489 246,-721 133,-234 300,-411 503,-533 203,-123 419,-184 650,-184 357,0 631,138 823,416 193,279 261,629 206,1054 -55,428 -216,783 -482,1064 -266,282 -574,422 -923,422 -216,0 -415,-59 -596,-176 -180,-117 -307,-288 -380,-515 -73,-226 -89,-502 -47,-827zm3332 1448l-623 0 364 -2827 578 0 -52 402c124,-190 229,-314 316,-373 87,-59 181,-88 282,-88 143,0 274,47 393,140l-277 652c-95,-82 -187,-123 -277,-123 -88,0 -166,29 -234,87 -68,58 -129,161 -184,312 -54,150 -112,466 -174,946l-112 872zm1949 -1468c-38,293 -27,511 32,651 83,199 213,299 393,299 138,0 264,-70 380,-212 116,-142 193,-365 232,-669 42,-324 23,-557 -57,-701 -79,-143 -195,-215 -348,-215 -150,0 -283,70 -400,210 -118,140 -195,352 -232,637zm-803 1468l503 -3899 623 0 -182 1406c227,-262 471,-393 735,-393 287,0 508,124 664,374 155,249 203,608 143,1075 -62,483 -206,855 -431,1116 -225,261 -476,391 -749,391 -135,0 -262,-41 -383,-124 -120,-83 -218,-203 -292,-361l-53 415 -578 0zm5333 0l503 -3899 623 0 -503 3899 -623 0zm1940 -1408c-36,280 -8,496 83,644 92,150 219,225 382,225 162,0 308,-75 437,-225 129,-148 213,-365 249,-649 36,-277 8,-491 -83,-639 -90,-150 -217,-225 -379,-225 -163,0 -309,75 -440,225 -129,148 -212,364 -249,644zm-636 -40c33,-249 114,-489 247,-721 132,-234 299,-411 502,-533 203,-123 420,-184 651,-184 357,0 630,138 823,416 192,279 260,629 206,1054 -55,428 -216,783 -482,1064 -267,282 -574,422 -924,422 -216,0 -414,-59 -595,-176 -181,-117 -308,-288 -381,-515 -73,-226 -88,-502 -47,-827zm2714 1448l502 -3899 623 0 -266 2068 858 -996 768 0 -938 1033 633 1794 -673 0 -431 -1276 -337 371 -116 905 -623 0zm-5831 -1955l-548 -120c99,-276 235,-480 408,-613 172,-132 412,-198 718,-198 278,0 481,39 607,118 125,79 209,178 248,300 40,122 39,344 -2,669l-122 871c-32,248 -46,431 -41,549 4,118 25,244 63,379l-619 0c-9,-49 -20,-122 -32,-218 -4,-45 -7,-74 -10,-87 -123,125 -248,218 -378,281 -129,63 -262,94 -399,94 -242,0 -422,-79 -541,-236 -120,-157 -164,-357 -133,-599 21,-158 71,-301 151,-426 80,-124 181,-221 304,-287 123,-66 296,-124 518,-174 300,-65 510,-127 629,-183l10 -76c19,-145 3,-248 -48,-311 -52,-62 -160,-93 -325,-93 -111,0 -201,27 -270,80 -70,53 -132,146 -188,280zm759 604c-84,32 -215,70 -394,115 -179,44 -298,88 -357,129 -90,70 -142,157 -155,263 -14,106 7,196 62,272 56,76 133,114 234,114 112,0 226,-44 339,-132 84,-68 145,-150 181,-248 24,-64 48,-185 71,-364l19 -149z"/>
  <path class="fil1" d="M11837 2619c-84,32 -215,70 -394,115 -179,44 -298,88 -357,129 -90,70 -142,157 -155,263 -14,106 7,196 62,272 56,76 133,114 234,114 112,0 226,-44 339,-132 84,-68 145,-150 181,-248 24,-64 48,-185 71,-364l19 -149z"/>
 </g>
</svg>
