<?xml version="1.0" encoding="UTF-8"?>
<!DOCTYPE svg PUBLIC "-//W3C//DTD SVG 1.1//EN" "http://www.w3.org/Graphics/SVG/1.1/DTD/svg11.dtd">
<!-- Creator: CorelDRAW -->
<svg xmlns="http://www.w3.org/2000/svg" xml:space="preserve" width="150px" height="40px" version="1.1" style="shape-rendering:geometricPrecision; text-rendering:geometricPrecision; image-rendering:optimizeQuality; fill-rule:evenodd; clip-rule:evenodd"
viewBox="0 0 114.14 30.44"
 xmlns:xlink="http://www.w3.org/1999/xlink"
 xmlns:xodm="http://www.corel.com/coreldraw/odm/2003">
 <defs>
  <style type="text/css">
   <![CDATA[
    .fil0 {fill:none}
    .fil2 {fill:#1A1A1A;fill-rule:nonzero}
    .fil1 {fill:#FF6633;fill-rule:nonzero}
   ]]>
  </style>
 </defs>
 <g id="Layer_x0020_1">
  <metadata id="CorelCorpID_0Corel-Layer"/>
  <rect class="fil0" width="114.14" height="30.44"/>
  <path class="fil1" d="M99.75 17.09c0,-4.87 2.4,-7.31 7.19,-7.31 4.8,0 7.2,2.44 7.2,7.31 0,4.86 -2.4,7.29 -7.2,7.29 -4.78,0 -7.18,-2.43 -7.19,-7.29zm3.66 -0.06c0,3.04 1.18,4.56 3.53,4.56 2.36,0 3.53,-1.52 3.53,-4.56 0,-2.96 -1.17,-4.44 -3.53,-4.44 -2.35,0 -3.53,1.48 -3.53,4.44z"/>
  <path class="fil1" d="M97.06 23.25c0,4.25 -2.55,6.37 -7.65,6.37 -1.79,0 -3.38,-0.23 -4.77,-0.69l0 -2.91c1.42,0.46 3.01,0.69 4.79,0.69 2.65,0 3.96,-1.1 3.96,-3.32 -1.09,0.46 -2.26,0.69 -3.51,0.69 -4.32,0 -6.48,-2.36 -6.48,-7.07 0,-4.79 2.51,-7.19 7.54,-7.19 1.69,0 3.73,0.2 6.12,0.6l0 12.83zm-3.67 -10.13c-0.6,-0.23 -1.45,-0.33 -2.56,-0.33 -2.53,0 -3.81,1.39 -3.81,4.19 0,2.71 1.1,4.06 3.29,4.06 1.05,0 2.08,-0.25 3.08,-0.75l0 -7.17z"/>
  <path class="fil1" d="M67.41 24.39l0 -14.56 2.84 0 0.45 2.14c1.4,-1.43 2.98,-2.14 4.77,-2.14 3.44,0 5.16,1.79 5.16,5.38l0 9.18 -3.67 0 0 -9.18c0,-1.61 -0.79,-2.41 -2.39,-2.41 -1.19,0 -2.36,0.47 -3.49,1.43l0 10.16 -3.67 0z"/>
  <path class="fil1" d="M60.28 18.29c-0.92,-0.19 -1.91,-0.28 -2.96,-0.28 -1.76,0 -2.65,0.6 -2.65,1.8 0,1.3 0.74,1.94 2.22,1.94 1.22,0 2.35,-0.38 3.39,-1.13l0 -2.33zm-9.27 1.56c0,-2.89 2.1,-4.34 6.31,-4.34 0.99,0 1.98,0.1 2.96,0.28l0 -1.09c0,-1.31 -0.94,-1.96 -2.81,-1.96 -1.59,0 -3.35,0.23 -5.29,0.7l0 -2.92c1.94,-0.46 3.7,-0.69 5.29,-0.69 4.32,0 6.48,1.6 6.48,4.79l0 9.77 -2.13 0 -1.31 -1.3c-1.26,0.86 -2.65,1.3 -4.17,1.3 -3.56,0 -5.33,-1.51 -5.33,-4.54z"/>
  <polygon class="fil1" points="52.05,4.56 52.05,7.75 46.37,7.75 46.37,24.39 42.7,24.39 42.7,7.75 37.02,7.75 37.02,4.56 "/>
  <polygon class="fil2" points="24.38,14.47 16.58,4.56 21.22,4.56 26.69,11.8 32.15,4.56 36.79,4.56 29.01,14.47 36.79,24.39 32.15,24.39 26.69,17.15 21.22,24.39 16.58,24.39 "/>
  <path class="fil2" d="M0 24.39l0 -19.83 7.75 0c6.56,0 9.83,3.13 9.83,9.37 0,6.97 -3.27,10.46 -9.83,10.46l-7.75 0zm7.75 -3.19c4.11,0 6.17,-2.43 6.17,-7.27 0,-4.12 -2.06,-6.18 -6.17,-6.18l-4.08 0 0 13.45 4.08 0z"/>
 </g>
</svg>
